<svg width="120" height="140" viewBox="0 0 120 140" xmlns="http://www.w3.org/2000/svg">
  <rect x="20" y="10" width="80" height="80" rx="40" fill="#24292E"/>
  <path d="M60 20C43.4 20 30 33.4 30 50c0 13.3 8.6 24.6 20.6 28.6 1.5.3 2.1-.7 2.1-1.5v-5.3c-8.4 1.8-10.2-4-10.2-4-1.4-3.5-3.3-4.4-3.3-4.4-2.7-1.9.2-1.8.2-1.8 3 .2 4.6 3.1 4.6 3.1 2.7 4.5 7 3.2 8.7 2.5.3-1.9 1-3.2 1.9-3.9-6.7-.8-13.7-3.3-13.7-14.9 0-3.3 1.2-6 3.1-8.1-.3-.8-1.3-3.8.3-8 0 0 2.5-.8 8.3 3.1 2.4-.7 5-.9 7.5-.9 2.6 0 5.1.3 7.5.9 5.8-3.9 8.3-3.1 8.3-3.1 1.6 4.2.6 7.2.3 8 1.9 2.1 3.1 4.8 3.1 8.1 0 11.6-7.1 14.1-13.8 14.9 1.1.9 2 2.8 2 5.6v8.3c0 .8.6 1.8 2.1 1.5C81.4 74.6 90 63.3 90 50 90 33.4 76.6 20 60 20z" fill="white"/>
  <text x="60" y="114" text-anchor="middle" fill="#24292E" font-family="system-ui,sans-serif" font-size="13" font-weight="600">GitHub</text>
</svg>
