<svg width="100" height="100" viewBox="0 0 100 100" xmlns="http://www.w3.org/2000/svg">
  <rect x="0" y="0" width="100" height="100" rx="24" fill="#085041"/>
  <circle cx="50" cy="45" r="26" fill="none" stroke="#1D9E75" stroke-width="5"/>
  <path d="M35 67 L27 82 L45 73" fill="#1D9E75" stroke="#1D9E75" stroke-width="2" stroke-linejoin="round"/>
  <path d="M39 38 Q39 33 44 33 L47 33 Q51 33 51 37 L51 41 Q51 44 48 45 Q52 50 55 53 Q56 50 59 50 L63 50 Q67 50 67 54 L67 57 Q67 62 62 62 Q50 62 42 54 Q34 46 39 38Z" fill="#1D9E75"/>
</svg>
