<svg width="200" height="200" viewBox="0 0 200 200" xmlns="http://www.w3.org/2000/svg">
  <rect width="200" height="200" fill="#0A1628"/>

  <!-- hexágono -->
  <polygon points="100,22 148,50 148,106 100,134 52,106 52,50" fill="none" stroke="#00D4FF" stroke-width="3"/>
  <!-- hexágono inner -->
  <polygon points="100,38 134,58 134,98 100,118 66,98 66,58" fill="#00D4FF" opacity="0.06"/>

  <!-- circuito: linhas tech -->
  <line x1="100" y1="22" x2="100" y2="10" stroke="#00D4FF" stroke-width="2" opacity="0.5"/>
  <circle cx="100" cy="8" r="3" fill="#00D4FF" opacity="0.7"/>

  <line x1="148" y1="50" x2="160" y2="43" stroke="#00D4FF" stroke-width="2" opacity="0.5"/>
  <circle cx="162" cy="42" r="3" fill="#00D4FF" opacity="0.7"/>

  <line x1="148" y1="106" x2="160" y2="113" stroke="#00D4FF" stroke-width="2" opacity="0.5"/>
  <circle cx="162" cy="115" r="3" fill="#00D4FF" opacity="0.7"/>

  <line x1="52" y1="50" x2="40" y2="43" stroke="#00D4FF" stroke-width="2" opacity="0.5"/>
  <circle cx="38" cy="42" r="3" fill="#00D4FF" opacity="0.7"/>

  <!-- T estilizado no centro -->
  <rect x="84" y="56" width="32" height="5" rx="2" fill="#00D4FF"/>
  <rect x="98" y="61" width="5" height="36" rx="2" fill="#00D4FF"/>
  <!-- S curvo simplificado -->
  <path d="M88 100 Q82 100 82 94 Q82 88 90 88 L112 88 Q120 88 120 82 Q120 76 112 76 L90 76" fill="none" stroke="#00D4FF" stroke-width="4" stroke-linecap="round" opacity="0.7"/>

  <text font-family="Arial, sans-serif" font-size="11" font-weight="700" fill="#00D4FF" x="100" y="156" text-anchor="middle" letter-spacing="2">TECH</text>
  <text font-family="Arial, sans-serif" font-size="9" fill="#4A90A4" x="100" y="170" text-anchor="middle" letter-spacing="3">SOLUTIONS</text>
</svg>
