<svg width="400" height="300" viewBox="0 0 400 300" xmlns="http://www.w3.org/2000/svg">
  <rect width="400" height="300" fill="#F8F7F4"/>

  <!-- header -->
  <rect x="0" y="0" width="400" height="40" fill="#1A1A1A"/>
  <rect x="20" y="14" width="80" height="12" rx="2" fill="#FFFFFF" opacity="0.9"/>
  <rect x="200" y="16" width="30" height="8" rx="2" fill="#FFFFFF" opacity="0.3"/>
  <rect x="238" y="16" width="30" height="8" rx="2" fill="#FFFFFF" opacity="0.3"/>
  <rect x="276" y="16" width="30" height="8" rx="2" fill="#FFFFFF" opacity="0.3"/>
  <rect x="350" y="13" width="32" height="14" rx="7" fill="#C0392B"/>
  <text font-family="Arial" font-size="7" fill="#FFFFFF" x="366" y="22" text-anchor="middle">AO VIVO</text>

  <!-- tag destaque -->
  <rect x="20" y="50" width="56" height="14" rx="3" fill="#C0392B"/>
  <text font-family="Arial" font-size="7" font-weight="700" fill="#FFFFFF" x="48" y="61" text-anchor="middle">DESTAQUE</text>

  <!-- notícia principal -->
  <rect x="20" y="70" width="220" height="120" rx="6" fill="#E8E4DC"/>
  <rect x="20" y="70" width="220" height="120" rx="6" fill="#2C2C2C" opacity="0.08"/>
  <!-- imagem placeholder com linhas diagonais -->
  <line x1="20" y1="70" x2="240" y2="190" stroke="#CCC" stroke-width="0.5"/>
  <line x1="240" y1="70" x2="20" y2="190" stroke="#CCC" stroke-width="0.5"/>
  <rect x="80" y="108" width="80" height="44" rx="4" fill="#FFFFFF" opacity="0.6"/>
  <rect x="88" y="116" width="64" height="6" rx="2" fill="#555"/>
  <rect x="88" y="126" width="48" height="6" rx="2" fill="#888"/>
  <rect x="88" y="136" width="56" height="6" rx="2" fill="#888"/>

  <text font-family="Georgia, serif" font-size="11" font-weight="700" fill="#1A1A1A" x="20" y="210">Economia global registra crescimento</text>
  <text font-family="Georgia, serif" font-size="11" font-weight="700" fill="#1A1A1A" x="20" y="224">acima das expectativas no trimestre</text>
  <text font-family="Arial" font-size="8" fill="#888" x="20" y="238">Há 2 horas · Economia</text>

  <!-- sidebar de notícias menores -->
  <line x1="254" y1="50" x2="254" y2="290" stroke="#E0DDD5" stroke-width="1"/>

  <!-- notícia 2 -->
  <rect x="263" y="50" width="118" height="60" rx="4" fill="#E8E4DC"/>
  <line x1="263" y1="50" x2="381" y2="110" stroke="#CCC" stroke-width="0.5"/>
  <line x1="381" y1="50" x2="263" y2="110" stroke="#CCC" stroke-width="0.5"/>
  <text font-family="Georgia, serif" font-size="8" font-weight="700" fill="#1A1A1A" x="263" y="124">Tecnologia avança em</text>
  <text font-family="Georgia, serif" font-size="8" font-weight="700" fill="#1A1A1A" x="263" y="135">inteligência artificial</text>
  <text font-family="Arial" font-size="7" fill="#888" x="263" y="146">Há 4h · Tecnologia</text>

  <!-- divisor -->
  <line x1="263" y1="152" x2="381" y2="152" stroke="#E0DDD5" stroke-width="0.5"/>

  <!-- notícia 3 -->
  <rect x="263" y="158" width="118" height="55" rx="4" fill="#E0EDE8"/>
  <line x1="263" y1="158" x2="381" y2="213" stroke="#B8D4CC" stroke-width="0.5"/>
  <line x1="381" y1="158" x2="263" y2="213" stroke="#B8D4CC" stroke-width="0.5"/>
  <text font-family="Georgia, serif" font-size="8" font-weight="700" fill="#1A1A1A" x="263" y="226">Esportes: resultado</text>
  <text font-family="Georgia, serif" font-size="8" font-weight="700" fill="#1A1A1A" x="263" y="237">do campeonato</text>
  <text font-family="Arial" font-size="7" fill="#888" x="263" y="248">Há 6h · Esportes</text>

  <!-- footer bar -->
  <rect x="0" y="270" width="400" height="30" fill="#1A1A1A"/>
  <rect x="20" y="279" width="50" height="6" rx="2" fill="#FFFFFF" opacity="0.2"/>
  <rect x="80" y="279" width="50" height="6" rx="2" fill="#FFFFFF" opacity="0.2"/>
  <rect x="140" y="279" width="50" height="6" rx="2" fill="#FFFFFF" opacity="0.2"/>
  <rect x="200" y="279" width="50" height="6" rx="2" fill="#FFFFFF" opacity="0.2"/>
  <text font-family="Arial" font-size="7" fill="#FFFFFF" opacity="0.4" x="380" y="288" text-anchor="end">© 2025</text>
</svg>
