<svg width="400" height="300" viewBox="0 0 400 300" xmlns="http://www.w3.org/2000/svg">
  <rect width="400" height="300" fill="#FAFAFA"/>
  
  <!-- header bar -->
  <rect x="0" y="0" width="400" height="44" fill="#111111"/>
  <circle cx="24" cy="22" r="7" fill="#333"/>
  <rect x="40" y="17" width="60" height="10" rx="3" fill="#444"/>
  <rect x="290" y="15" width="50" height="14" rx="7" fill="#E5E5E5" opacity="0.15"/>
  <rect x="350" y="15" width="30" height="14" rx="7" fill="#E5E5E5" opacity="0.15"/>

  <!-- product card 1 -->
  <rect x="20" y="64" width="110" height="150" rx="10" fill="#FFFFFF" stroke="#ECECEC" stroke-width="1"/>
  <rect x="20" y="64" width="110" height="90" rx="10" fill="#F0EDE8"/>
  <rect x="20" y="134" width="110" height="20" fill="#F0EDE8"/>
  <ellipse cx="75" cy="109" rx="28" ry="28" fill="#D9D4CC"/>
  <rect x="30" y="162" width="60" height="8" rx="3" fill="#222"/>
  <rect x="30" y="175" width="40" height="7" rx="3" fill="#888"/>
  <rect x="30" y="190" width="70" height="16" rx="8" fill="#111"/>

  <!-- product card 2 -->
  <rect x="145" y="64" width="110" height="150" rx="10" fill="#FFFFFF" stroke="#ECECEC" stroke-width="1"/>
  <rect x="145" y="64" width="110" height="90" rx="10" fill="#E8EDF0"/>
  <rect x="145" y="134" width="110" height="20" fill="#E8EDF0"/>
  <ellipse cx="200" cy="109" rx="28" ry="28" fill="#C8D4DC"/>
  <rect x="155" y="162" width="60" height="8" rx="3" fill="#222"/>
  <rect x="155" y="175" width="40" height="7" rx="3" fill="#888"/>
  <rect x="155" y="190" width="70" height="16" rx="8" fill="#111"/>

  <!-- product card 3 -->
  <rect x="270" y="64" width="110" height="150" rx="10" fill="#FFFFFF" stroke="#ECECEC" stroke-width="1"/>
  <rect x="270" y="64" width="110" height="90" rx="10" fill="#EDE8F0"/>
  <rect x="270" y="134" width="110" height="20" fill="#EDE8F0"/>
  <ellipse cx="325" cy="109" rx="28" ry="28" fill="#D4CCD9"/>
  <rect x="280" y="162" width="60" height="8" rx="3" fill="#222"/>
  <rect x="280" y="175" width="40" height="7" rx="3" fill="#888"/>
  <rect x="280" y="190" width="70" height="16" rx="8" fill="#111"/>

  <!-- bottom label -->
  <rect x="0" y="256" width="400" height="44" fill="#111111"/>
  <text font-family="Georgia, serif" font-size="13" font-weight="700" fill="#FFFFFF" x="200" y="273" text-anchor="middle" letter-spacing="2">E-COMMERCE MINIMALISTA</text>
  <text font-family="Arial, sans-serif" font-size="9" fill="#888888" x="200" y="288" text-anchor="middle" letter-spacing="1">Interface focada em conversão</text>
</svg>
