<svg width="680" height="180" viewBox="0 0 680 180" xmlns="http://www.w3.org/2000/svg">

  <!-- Instagram -->
  <g transform="translate(40, 30)">
    <defs>
      <linearGradient id="ig-grad" x1="0%" y1="100%" x2="100%" y2="0%">
        <stop offset="0%" stop-color="#f09433"/>
        <stop offset="25%" stop-color="#e6683c"/>
        <stop offset="50%" stop-color="#dc2743"/>
        <stop offset="75%" stop-color="#cc2366"/>
        <stop offset="100%" stop-color="#bc1888"/>
      </linearGradient>
    </defs>
    <rect width="80" height="80" rx="18" fill="url(#ig-grad)"/>
    <rect x="16" y="16" width="48" height="48" rx="14" fill="none" stroke="white" stroke-width="4"/>
    <circle cx="40" cy="40" r="11" fill="none" stroke="white" stroke-width="4"/>
    <circle cx="58" cy="22" r="4" fill="white"/>
    <text x="40" y="104" text-anchor="middle" fill="#dc2743" font-family="system-ui,sans-serif" font-size="13" font-weight="600">Instagram</text>
  </g>


  <!-- WhatsApp -->
  <g transform="translate(280, 30)">
    <rect width="80" height="80" rx="18" fill="#25D366"/>
    <path d="M40 14C25.6 14 14 25.6 14 40c0 4.8 1.3 9.3 3.6 13.2L14 66l13.2-3.5C31 64.7 35.4 66 40 66c14.4 0 26-11.6 26-26S54.4 14 40 14z" fill="white"/>
    <path d="M52.5 46.5c-.7-.4-4.2-2.1-4.9-2.3-.7-.2-1.2-.4-1.7.4-.5.8-1.9 2.3-2.3 2.8-.4.5-.9.5-1.6.2-.7-.4-3-1.1-5.7-3.5-2.1-1.9-3.5-4.2-3.9-4.9-.4-.7 0-1.1.3-1.4.3-.3.7-.8 1-.1.3.3.5.7.8 1.1.3.4.4.6.6 1 .2.4.1.8-.1 1.1-.2.3-1.2 3 1.1 5.1 2.3 2.1 4.1 2.4 4.6 2.6.5.2 1.8.1 2.4-.8.6-.9.9-1.8 1.3-1.9.4-.1 2.5.5 3.3 1 .3.2 1.5.7 1.5 1.7.1 1-.4 2.5-1 2.9" fill="#25D366"/>
    <text x="40" y="104" text-anchor="middle" fill="#25D366" font-family="system-ui,sans-serif" font-size="13" font-weight="600">WhatsApp</text>
  </g>

  <!-- GitHub -->
  <g transform="translate(400, 30)">
    <rect width="80" height="80" rx="40" fill="#24292E"/>
    <path d="M40 10C23.4 10 10 23.4 10 40c0 13.3 8.6 24.6 20.6 28.6 1.5.3 2.1-.7 2.1-1.5v-5.3c-8.4 1.8-10.2-4-10.2-4-1.4-3.5-3.3-4.4-3.3-4.4-2.7-1.9.2-1.8.2-1.8 3 .2 4.6 3.1 4.6 3.1 2.7 4.5 7 3.2 8.7 2.5.3-1.9 1-3.2 1.9-3.9-6.7-.8-13.7-3.3-13.7-14.9 0-3.3 1.2-6 3.1-8.1-.3-.8-1.3-3.8.3-8 0 0 2.5-.8 8.3 3.1 2.4-.7 5-.9 7.5-.9 2.6 0 5.1.3 7.5.9 5.8-3.9 8.3-3.1 8.3-3.1 1.6 4.2.6 7.2.3 8 1.9 2.1 3.1 4.8 3.1 8.1 0 11.6-7.1 14.1-13.8 14.9 1.1.9 2 2.8 2 5.6v8.3c0 .8.6 1.8 2.1 1.5C61.4 64.6 70 53.3 70 40 70 23.4 56.6 10 40 10z" fill="white"/>
    <text x="40" y="104" text-anchor="middle" fill="#24292E" font-family="system-ui,sans-serif" font-size="13" font-weight="600">GitHub</text>
  </g>

  <!-- Behance -->
  <g transform="translate(520, 30)">
    <rect width="80" height="80" rx="14" fill="#1769FF"/>
    <text x="15" y="51" font-family="system-ui,sans-serif" font-size="38" font-weight="800" fill="white">Bē</text>
    <text x="40" y="104" text-anchor="middle" fill="#1769FF" font-family="system-ui,sans-serif" font-size="13" font-weight="600">Behance</text>
  </g>

</svg>
