<svg width="120" height="140" viewBox="0 0 120 140" xmlns="http://www.w3.org/2000/svg">
  <rect x="20" y="10" width="80" height="80" rx="18" fill="#25D366"/>
  <path d="M60 24C45.6 24 34 35.6 34 50c0 4.8 1.3 9.3 3.6 13.2L34 76l13.2-3.5C51 74.7 55.4 76 60 76c14.4 0 26-11.6 26-26S74.4 24 60 24z" fill="white"/>
  <path d="M72.5 56.5c-.7-.4-4.2-2.1-4.9-2.3-.7-.2-1.2-.4-1.7.4-.5.8-1.9 2.3-2.3 2.8-.4.5-.9.5-1.6.2-.7-.4-3-1.1-5.7-3.5-2.1-1.9-3.5-4.2-3.9-4.9-.4-.7 0-1.1.3-1.4.3-.3.7-.8 1-.1.3.3.5.7.8 1.1.3.4.4.6.6 1 .2.4.1.8-.1 1.1-.2.3-1.2 3 1.1 5.1 2.3 2.1 4.1 2.4 4.6 2.6.5.2 1.8.1 2.4-.8.6-.9.9-1.8 1.3-1.9.4-.1 2.5.5 3.3 1 .3.2 1.5.7 1.5 1.7.1 1-.4 2.5-1 2.9" fill="#25D366"/>
  <text x="60" y="114" text-anchor="middle" fill="#25D366" font-family="system-ui,sans-serif" font-size="13" font-weight="600">WhatsApp</text>
</svg>
